# xmcd
#
# Track frame offsets: 
#        150
#        16645
#        32992
#        45785
#        61397
#        75755
#        89800
#        107650
#        121312
#        139322
#
# Disc length: 2050 seconds
#
# Revision: 3
# Processed by: cddbd v1.4PL0 Copyright (c) Steve Scherf et al.
# Submitted via: ExactAudioCopy v0.90b3
#
DISCID=7408000a
DTITLE=David Ball - Play
DYEAR=1999
DGENRE=Country
TTITLE0=Watching My Baby Not Coming Back
TTITLE1=I Want To With You
TTITLE2=What Do You Say To That
TTITLE3=Hasta Luego, My Love
TTITLE4=A Grain Of Salt
TTITLE5=Lonely Town
TTITLE6=Going Someplace To Forget
TTITLE7=For You
TTITLE8=I'm Just A Country Boy
TTITLE9=When I Get Lonely
EXTD=YEAR: 1999 ID3G: 2
EXTT0=
EXTT1=
EXTT2=
EXTT3=
EXTT4=
EXTT5=
EXTT6=
EXTT7=
EXTT8=
EXTT9=
PLAYORDER=
